<svg width="234" height="272" viewBox="0 0 234 272" fill="none" xmlns="http://www.w3.org/2000/svg">
<path d="M206.161 256.089C207.852 250.24 213.95 246.872 219.786 248.565C221.85 249.165 223.936 249.767 226.039 250.374C231.877 252.06 235.249 258.17 233.568 264.022C231.885 269.873 225.789 273.252 219.95 271.567C217.842 270.958 215.741 270.355 213.661 269.751C207.826 268.055 204.47 261.937 206.161 256.089ZM168.955 243.877C170.957 238.127 177.236 235.094 182.973 237.1C186.865 238.461 190.895 239.796 195.058 241.121C200.849 242.964 204.053 249.165 202.214 254.969C200.374 260.772 194.187 263.984 188.396 262.141C184.078 260.767 179.849 259.362 175.724 257.919C169.987 255.913 166.953 249.627 168.955 243.877ZM48.4037 242.822C50.6766 237.175 57.0881 234.443 62.7231 236.72C66.3442 238.184 70.2031 239.269 74.299 239.915C80.3016 240.86 84.4039 246.505 83.4609 252.521C82.5171 258.537 76.8851 262.649 70.8821 261.703C65.1182 260.795 59.6465 259.256 54.4925 257.173C48.858 254.895 46.132 248.469 48.4037 242.822ZM111.133 234.839C116.785 232.603 123.178 235.384 125.409 241.049C127.637 246.712 124.863 253.114 119.213 255.349C116.828 256.293 114.372 257.168 111.849 257.97C109.2 258.812 106.576 259.541 103.984 260.152C98.0685 261.546 92.1442 257.867 90.7531 251.939C89.3623 246.011 93.0325 240.074 98.9479 238.68C100.98 238.201 103.063 237.627 105.194 236.95C107.246 236.297 109.225 235.593 111.133 234.839ZM140.653 213.919C144.52 209.225 151.454 208.56 156.14 212.433C160.527 216.062 161.383 222.382 158.303 227.028C158.82 227.282 159.337 227.546 159.865 227.796C165.354 230.407 167.699 236.983 165.094 242.485C162.489 247.987 155.92 250.329 150.431 247.718C146.613 245.902 142.931 243.97 139.399 241.925C136.218 241.961 133.045 240.629 130.839 237.998C126.933 233.334 127.541 226.379 132.193 222.462C135.342 219.811 138.157 216.949 140.653 213.919ZM19.7791 209.899C24.8547 206.553 31.6749 207.965 35.0155 213.051C37.3545 216.612 39.9646 219.927 42.8163 222.929C47.0035 227.34 46.8297 234.316 42.4295 238.515C38.029 242.713 31.068 242.543 26.878 238.134C23.0683 234.124 19.6505 229.768 16.6345 225.176C13.2934 220.089 14.7034 213.248 19.7791 209.899ZM110.638 194.96C115.974 192.044 122.658 194.021 125.567 199.367C127.243 202.448 129.274 205.326 131.656 208.047C135.663 212.625 135.206 219.595 130.638 223.611C126.07 227.626 119.115 227.17 115.108 222.592C111.721 218.721 108.744 214.51 106.247 209.921C103.34 204.574 105.304 197.875 110.638 194.96ZM155.208 181.054C156.183 175.043 161.839 170.96 167.837 171.936C173.834 172.914 177.908 178.576 176.935 184.586C176.087 189.817 174.815 194.976 173.11 200.006C171.155 205.772 164.909 208.857 159.155 206.898C153.402 204.939 150.324 198.68 152.279 192.914C153.577 189.084 154.55 185.117 155.208 181.054ZM9.62875 167.421C15.6577 166.661 21.1624 170.948 21.921 176.991C22.4516 181.215 23.3101 185.468 24.4854 189.661C26.127 195.524 22.7131 201.612 16.8637 203.259C11.0138 204.905 4.93957 201.483 3.2964 195.62C1.82884 190.383 0.755104 185.059 0.0872428 179.74C-0.671221 173.698 3.5997 168.181 9.62875 167.421ZM97.5224 173.15C97.5224 170.198 97.438 167.367 97.2789 164.657C96.9218 158.579 101.551 153.358 107.615 152.998C113.681 152.64 118.891 157.279 119.249 163.358C119.435 166.528 119.528 169.794 119.528 173.15C119.528 175.118 119.605 177.009 119.75 178.821C120.236 184.892 115.714 190.208 109.657 190.695C103.601 191.18 98.3022 186.656 97.8161 180.587C97.6221 178.163 97.5224 175.682 97.5224 173.15ZM160.466 130.392C166.316 128.747 172.391 132.168 174.034 138.03C175.44 143.055 176.502 148.152 177.207 153.271C178.037 159.304 173.828 164.873 167.809 165.705C161.791 166.535 156.24 162.317 155.409 156.286C154.843 152.176 153.985 148.062 152.845 143.989C151.204 138.126 154.617 132.037 160.466 130.392ZM7.1216 130.736C9.82675 125.283 16.4295 123.057 21.8708 125.768C27.3109 128.479 29.5313 135.097 26.8278 140.55C25.15 143.932 23.8277 147.71 22.8952 151.807C21.5442 157.744 15.6393 161.459 9.71471 160.105C3.79248 158.75 0.0832208 152.84 1.43394 146.903C2.71366 141.28 4.59275 135.834 7.1216 130.736ZM78.554 108.883C82.0049 103.871 88.8602 102.611 93.862 106.069C100.238 110.478 105.314 116.402 109.184 123.428C112.121 128.759 110.19 135.466 104.872 138.411C99.5523 141.354 92.8592 139.42 89.9221 134.089C87.4715 129.64 84.5742 126.439 81.362 124.218C76.3615 120.759 75.1044 113.896 78.554 108.883ZM137.644 94.956C142.418 91.1876 149.342 92.0098 153.102 96.7938C156.318 100.885 159.238 105.163 161.856 109.58C164.959 114.815 163.239 121.58 158.016 124.691C152.792 127.802 146.042 126.079 142.938 120.843C140.805 117.246 138.424 113.766 135.81 110.441C132.052 105.657 132.872 98.724 137.644 94.956ZM50.2805 99.249C56.2356 98.037 62.0439 101.896 63.2532 107.864C64.4622 113.832 60.6188 119.653 54.6644 120.865C52.2161 121.363 49.6277 122.03 46.8994 122.882C45.0785 123.451 43.381 124.142 41.8063 124.936C36.3773 127.669 29.7643 125.473 27.0356 120.032C24.3076 114.591 26.4992 107.964 31.9281 105.229C34.592 103.887 37.403 102.747 40.3521 101.826C43.7299 100.771 47.0403 99.9086 50.2805 99.249ZM102.859 71.2365C105.769 65.8915 112.454 63.9208 117.787 66.8358C122.399 69.3576 126.775 72.159 130.896 75.2065C135.786 78.8216 136.823 85.7265 133.217 90.627C129.61 95.5277 122.72 96.5685 117.83 92.953C114.503 90.4928 110.973 88.2335 107.25 86.1976C101.917 83.281 99.9508 76.5819 102.859 71.2365ZM61.269 61.3654C62.5233 55.4065 68.3603 51.594 74.3062 52.8511C76.5515 53.3258 78.9025 53.774 81.362 54.2007C83.93 54.6462 86.4575 55.1714 88.9408 55.7658C94.8512 57.1805 98.5042 63.1307 97.0926 69.0541C95.6804 74.9758 89.7425 78.6298 83.8333 77.2166C81.8008 76.7301 79.7232 76.2985 77.6084 75.9316C74.9003 75.4618 72.286 74.9642 69.7646 74.4312C63.8196 73.1743 60.0162 67.3234 61.269 61.3654ZM22.8522 38.249C26.9931 33.7953 33.9502 33.5484 38.3966 37.6962C40.7783 39.9188 44.0035 42.1893 48.3392 44.3799C53.7633 47.1222 55.9453 53.753 53.2103 59.1902C50.4749 64.6271 43.858 66.8118 38.4324 64.0719C32.5712 61.1105 27.5548 57.7082 23.4038 53.8346C18.9572 49.6844 18.7114 42.7058 22.8522 38.249ZM10.7247 8.66428C12.0259 2.71667 17.8917 -1.04456 23.8264 0.257658C29.7622 1.5616 33.5229 7.43928 32.2218 13.3881C31.7677 15.4646 31.476 17.4286 31.3479 19.282C30.9278 25.3563 25.6752 29.9384 19.6144 29.5193C13.5531 29.0985 8.97393 23.8344 9.39237 17.7601C9.60457 14.69 10.0723 11.6472 10.7247 8.66428Z" fill="#F2F0EE"/>
</svg>
