<svg width="89" height="24" viewBox="0 0 89 24" fill="none" xmlns="http://www.w3.org/2000/svg">
<path d="M88.5091 5.84946C88.9905 6.35498 89.0627 6.86049 88.8461 8.08818C88.2924 11.0731 86.8962 15.021 85.837 16.5857C85.3556 17.3078 84.8501 17.7411 83.9835 17.7893C83.3335 17.7893 82.9965 17.6689 82.491 17.2115C82.1059 16.8505 81.9133 16.5134 81.4318 15.3339C81.1911 14.7802 80.6134 13.4803 80.1319 12.4452C79.0246 10.038 78.5672 9.02699 78.4709 8.64184C78.3265 8.04003 78.495 7.43823 78.9524 7.05307C79.2413 6.78828 79.6023 6.64384 79.9875 6.64384C80.3004 6.64384 80.6134 6.74013 80.9022 6.95678C81.167 7.12529 81.3596 7.41415 81.6244 8.08818C81.817 8.54555 83.9353 13.1915 83.9835 13.2396C84.0316 13.2396 84.5371 11.8434 84.826 11.0009C85.3315 9.41215 85.6926 7.96781 85.7408 7.14936C85.813 6.21054 86.3426 5.39209 87.3777 5.39209C87.7869 5.39209 88.1961 5.53652 88.5091 5.84946Z" fill="#FF3733"/>
<path d="M77.753 13.5528C78.1381 15.286 78.1863 15.6952 78.1141 16.1285C77.9215 17.1155 77.1271 17.8858 75.9476 18.2228C75.6587 18.295 74.9847 18.3191 74.3107 18.3191C72.2404 18.3191 69.4481 17.5247 68.0519 16.0081C66.752 14.6119 67.1131 12.9991 69.0629 11.2659C70.1702 10.303 71.5664 9.48456 72.6978 9.14755C72.9145 9.09941 73.107 9.00312 73.107 8.97905C73.2756 8.73833 72.409 8.64204 70.1462 8.69018C68.2204 8.71425 68.0278 8.69018 67.6186 8.40132C66.6316 7.70322 66.8001 6.23482 67.8834 5.7293C68.2445 5.5608 68.9907 5.51265 70.772 5.51265C74.3107 5.48858 75.2735 5.92188 76.092 7.82358C76.7419 9.3642 77.1271 10.7363 77.753 13.5528ZM73.9736 15.1656C74.3347 15.1897 74.8162 15.1897 74.8643 15.1415C74.8643 15.1415 74.2625 12.4695 74.1903 12.2288L74.1421 12.0121L73.6126 12.2047C72.9867 12.3973 72.5775 12.614 71.9034 13.0713C71.4701 13.3843 70.6998 14.0342 70.6998 14.1064C70.6998 14.2027 71.5183 14.5879 72.0719 14.7564C72.746 14.973 73.3478 15.1175 73.9736 15.1656Z" fill="#FF3733"/>
<path d="M63.6789 17.2839C65.2195 18.0061 65.6288 18.319 65.7973 18.9449C65.8695 19.2578 65.8213 19.8115 65.701 20.0763C65.4121 20.6059 64.8825 20.9188 64.2807 20.9188C64.1363 20.9188 63.9678 20.8947 63.7993 20.8466C63.6789 20.8225 63.4382 20.7262 63.2697 20.6299C63.1012 20.5337 62.4272 20.1966 61.7772 19.8837C59.4663 18.7764 56.8424 16.995 56.8424 14.1305C56.8424 12.7343 57.4683 11.651 59.057 10.3993C60.0199 9.60488 63.1012 7.65503 64.4011 7.65503C64.8103 7.65503 65.1955 7.77539 65.4603 8.04018C66.1583 8.71421 66.1343 9.74931 65.4362 10.3511C65.3158 10.4715 65.027 10.64 64.7622 10.7363C63.1975 11.3621 61.8013 12.1806 60.694 13.1435C60.2366 13.5286 60.0199 13.8416 60.0199 14.1305C60.0199 15.5989 62.5957 16.7784 63.6789 17.2839Z" fill="#FF3733"/>
<path d="M55.4439 13.0471C55.4439 13.9137 55.2754 14.2026 53.7588 15.8395C52.5552 17.1394 52.4589 17.2357 52.0979 17.4282C51.9294 17.5245 51.6405 17.5727 51.3757 17.5727C50.7017 17.5727 50.0758 17.1634 49.8591 16.5135C49.7147 16.1043 49.7388 15.6469 49.8832 15.2858C50.0517 14.9729 50.1962 14.8044 50.5091 14.5877C50.6535 14.4914 51.0146 14.1303 51.3275 13.7933C51.6405 13.4563 51.9775 13.0952 52.0738 12.9989L52.2182 12.8304L52.0979 12.6138C51.8571 12.1323 51.472 11.8435 50.5332 11.4343C50.2443 11.3139 49.811 11.1213 49.5462 10.9769C48.2704 10.3269 47.6204 9.1474 47.813 7.87157C48.1741 5.70507 50.5332 3.53857 52.7719 3.53857C53.3737 3.53857 53.4218 3.56265 53.7588 3.70708C54.4569 4.06816 54.7699 4.47739 54.7699 5.2477C54.7699 5.65693 54.7458 5.72914 54.6254 5.94579C54.3125 6.47538 53.8311 6.76425 53.3015 6.76425C53.1089 6.76425 52.8682 6.76425 52.7478 6.74018C52.1941 6.74018 51.2794 7.53456 51.0868 7.96786C50.9665 8.18451 50.9665 8.18451 51.7368 8.52152C53.4459 9.24369 54.3366 9.98992 54.9625 11.2658C55.2995 11.9398 55.4439 12.5175 55.4439 13.0471Z" fill="#FF3733"/>
<path d="M40.3677 15.2136C40.44 16.9949 40.4159 19.3059 40.2955 19.8114C40.0548 20.8946 39.4048 21.5687 38.0327 22.1223C37.7439 22.2667 36.5162 22.7241 35.3126 23.1815C33.2664 23.9518 33.122 23.9999 32.7368 23.9999C32.448 23.9999 32.2313 23.9999 32.0628 23.9277C31.7258 23.8074 31.2684 23.3259 31.1481 22.9889C30.9074 22.2427 31.2203 21.4002 31.9184 21.0631C32.0147 20.9909 32.3998 20.8465 32.7128 20.7502C33.4831 20.4854 36.3236 19.4262 36.8051 19.2096C37.1421 19.0651 37.1661 19.0411 37.2143 18.8485C37.3106 18.4393 37.118 12.4694 37.0217 12.349C37.0217 12.349 36.9254 12.4453 36.8051 12.5897C36.7088 12.7342 36.444 13.023 36.2032 13.2637C35.3366 14.1544 34.5663 14.5877 33.8201 14.5877C33.2664 14.5877 32.7368 14.347 32.1832 13.8656C31.3647 13.0471 29.6556 11.5546 28.789 11.001C28.115 10.5436 27.8502 10.1103 27.8983 9.41219C27.9706 8.61781 28.5483 8.01601 29.3427 8.01601C29.6556 8.01601 29.9926 8.06415 30.2333 8.18451C30.6666 8.40116 32.3035 9.67699 33.3387 10.6399C33.6516 10.9047 33.772 11.0491 33.8923 11.0491C33.9886 11.0491 34.0849 10.9047 34.3015 10.6399C35.3366 9.4122 36.2273 7.82343 36.5884 6.52353C36.8291 5.70508 37.2383 4.98291 38.2253 4.98291C38.5864 4.98291 38.9715 5.12734 39.2604 5.41621C39.6937 5.80137 39.79 6.04209 39.8381 7.07719C39.8622 7.53456 39.9585 8.88261 40.0548 10.0381C40.2714 12.9508 40.2955 13.5767 40.3677 15.2136Z" fill="#FF3733"/>
<path d="M27.8946 15.5266C28.015 15.8636 27.9909 16.4654 27.8465 16.7302C27.5817 17.3079 27.1484 17.5727 26.1855 17.7412C25.704 17.8134 24.9096 17.8616 24.3078 17.8616C24.019 17.8616 23.7542 17.8616 23.6097 17.8375C19.9748 17.2598 19.5415 13.8897 19.373 10.7121C19.373 10.3029 19.349 9.96589 19.3249 9.96589C18.5787 10.1344 17.8324 10.2548 17.0621 10.2548C16.6288 10.2548 16.2677 10.2066 16.0511 10.1344C15.6659 9.96589 15.2567 9.60481 15.1123 9.24373C14.9197 8.85857 14.9197 8.32898 15.1363 7.91975C15.3289 7.55867 15.5215 7.36609 15.9066 7.17352C16.0992 7.1013 16.1955 7.07723 16.5325 7.07723C17.2065 7.07723 17.7843 7.05316 18.4583 6.90872C18.9157 6.81243 19.3008 6.71614 19.3249 6.69207C19.349 6.668 19.373 6.06619 19.4212 5.34403C19.4934 3.34604 19.6378 1.4684 19.686 1.22768C19.8063 0.746239 20.1193 0.361084 20.5766 0.120361C20.7692 0.0481452 20.9137 0 21.2025 0C21.6599 0 21.9488 0.120361 22.2858 0.457372C22.7672 0.914745 22.8154 1.22768 22.7191 2.84052C22.6709 3.51454 22.6228 4.47743 22.5987 4.98295C22.5746 5.89769 22.5746 5.89769 22.6709 5.87362C23.2005 5.70511 24.6449 5.41625 24.9578 5.41625C25.6077 5.41625 26.2336 5.84954 26.4262 6.42728C26.5466 6.78836 26.5225 7.26981 26.4021 7.58274C26.1614 8.11233 25.704 8.42527 24.8856 8.59378C24.4763 8.69006 23.2968 8.97893 22.7431 9.12336L22.5265 9.17151V9.79739C22.5265 10.7603 22.6469 13.9378 23.4653 14.4915C23.682 14.6359 24.0671 14.7081 24.5486 14.7081C24.9337 14.7081 25.367 14.66 25.8244 14.5637C26.0892 14.5155 26.2818 14.4915 26.4262 14.4915C27.0521 14.4915 27.702 14.9488 27.8946 15.5266Z" fill="#FF3733"/>
<path d="M13.7372 16.8988C13.8094 17.5487 13.8094 17.5969 13.689 17.958C13.6168 18.2228 13.5205 18.3672 13.352 18.5598C12.9909 18.9449 12.3651 19.1375 11.8836 19.0171C11.2096 18.8727 10.7522 18.3431 10.6319 17.621C10.4634 16.6581 10.4152 12.4454 10.5596 9.38826C10.6078 8.5698 10.6319 8.44944 10.7282 8.18465C10.8967 7.82357 11.1855 7.5347 11.5225 7.39027C11.691 7.29398 11.9318 7.26991 12.1966 7.26991C12.8224 7.26991 13.2557 7.55877 13.5687 8.11243L13.7131 8.37723L13.689 10.2308C13.6409 13.6731 13.665 16.1525 13.7372 16.8988ZM11.5948 5.22377C10.8726 5.03119 10.2949 4.09238 10.3671 3.22578C10.4634 2.31103 11.1374 1.70923 12.004 1.70923C12.7261 1.70923 13.4724 2.19067 13.689 2.88877C13.8335 3.41835 13.6168 4.30903 13.2317 4.7664C12.9428 5.07934 12.4854 5.29599 12.0762 5.29599C11.9077 5.27191 11.691 5.24784 11.5948 5.22377Z" fill="#FF3733"/>
<path d="M6.8365 17.2839C8.37712 18.0061 8.78635 18.319 8.95486 18.9449C9.02707 19.2578 8.97893 19.8115 8.85857 20.0763C8.5697 20.6059 8.04011 20.9188 7.43831 20.9188C7.29388 20.9188 7.12537 20.8947 6.95687 20.8466C6.8365 20.8225 6.59578 20.7262 6.42728 20.6299C6.25877 20.5337 5.58475 20.1966 4.9348 19.8837C2.62387 18.7764 0 16.995 0 14.1305C0 12.7343 0.625877 11.651 2.21464 10.3993C3.17753 9.60488 6.25877 7.65503 7.55867 7.65503C7.9679 7.65503 8.35305 7.77539 8.61785 8.04018C9.31594 8.71421 9.29187 9.74931 8.59377 10.3511C8.47341 10.4715 8.18455 10.64 7.91975 10.7363C6.35506 11.3621 4.95887 12.1806 3.85155 13.1435C3.39418 13.5286 3.17753 13.8416 3.17753 14.1305C3.17753 15.5989 5.75326 16.7784 6.8365 17.2839Z" fill="#FF3733"/>
</svg>
